<mxfile host="app.diagrams.net" modified="2024-12-16T13:17:37.671Z" agent="Mozilla/5.0 (Windows NT 10.0; Win64; x64) AppleWebKit/537.36 (KHTML, like Gecko) Chrome/131.0.0.0 Safari/537.36" etag="rutsaVIKA3AbHELLyHGz" version="24.5.4" type="github">
  <diagram name="Page-1" id="A7MdUU53E3rQHlgcuJL7">
    <mxGraphModel dx="1290" dy="530" grid="1" gridSize="10" guides="1" tooltips="1" connect="1" arrows="1" fold="1" page="1" pageScale="1" pageWidth="827" pageHeight="1169" math="0" shadow="0">
      <root>
        <mxCell id="0" />
        <mxCell id="1" parent="0" />
        <mxCell id="KGPM8B4EujTWmbZvzeQu-2" value="管理" style="shape=rhombus;perimeter=rhombusPerimeter;whiteSpace=wrap;html=1;align=center;" vertex="1" parent="1">
          <mxGeometry x="544" y="220" width="120" height="60" as="geometry" />
        </mxCell>
        <mxCell id="KGPM8B4EujTWmbZvzeQu-4" value="用户" style="rounded=1;arcSize=10;whiteSpace=wrap;html=1;align=center;" vertex="1" parent="1">
          <mxGeometry x="554" y="340" width="100" height="40" as="geometry" />
        </mxCell>
        <mxCell id="KGPM8B4EujTWmbZvzeQu-6" value="用户ID" style="ellipse;whiteSpace=wrap;html=1;align=center;fontStyle=4;" vertex="1" parent="1">
          <mxGeometry x="827" y="420" width="100" height="40" as="geometry" />
        </mxCell>
        <mxCell id="KGPM8B4EujTWmbZvzeQu-9" value="" style="endArrow=none;html=1;rounded=0;entryX=0.5;entryY=1;entryDx=0;entryDy=0;exitX=0.5;exitY=0;exitDx=0;exitDy=0;" edge="1" parent="1" source="KGPM8B4EujTWmbZvzeQu-4" target="KGPM8B4EujTWmbZvzeQu-2">
          <mxGeometry relative="1" as="geometry">
            <mxPoint x="454" y="290" as="sourcePoint" />
            <mxPoint x="614" y="290" as="targetPoint" />
          </mxGeometry>
        </mxCell>
        <mxCell id="KGPM8B4EujTWmbZvzeQu-10" value="1" style="edgeLabel;html=1;align=center;verticalAlign=middle;resizable=0;points=[];" vertex="1" connectable="0" parent="KGPM8B4EujTWmbZvzeQu-9">
          <mxGeometry x="0.0667" y="-1" relative="1" as="geometry">
            <mxPoint as="offset" />
          </mxGeometry>
        </mxCell>
        <mxCell id="KGPM8B4EujTWmbZvzeQu-11" value="" style="endArrow=none;html=1;rounded=0;exitX=1;exitY=0.5;exitDx=0;exitDy=0;entryX=0;entryY=0;entryDx=0;entryDy=0;" edge="1" parent="1" source="KGPM8B4EujTWmbZvzeQu-4" target="KGPM8B4EujTWmbZvzeQu-6">
          <mxGeometry relative="1" as="geometry">
            <mxPoint x="564" y="310" as="sourcePoint" />
            <mxPoint x="724" y="310" as="targetPoint" />
          </mxGeometry>
        </mxCell>
        <mxCell id="KGPM8B4EujTWmbZvzeQu-13" value="" style="endArrow=none;html=1;rounded=0;exitX=1;exitY=0.25;exitDx=0;exitDy=0;entryX=0.04;entryY=0.34;entryDx=0;entryDy=0;entryPerimeter=0;" edge="1" parent="1" source="KGPM8B4EujTWmbZvzeQu-4">
          <mxGeometry relative="1" as="geometry">
            <mxPoint x="664" y="370" as="sourcePoint" />
            <mxPoint x="798" y="373.6" as="targetPoint" />
          </mxGeometry>
        </mxCell>
        <mxCell id="KGPM8B4EujTWmbZvzeQu-14" value="查看" style="shape=rhombus;perimeter=rhombusPerimeter;whiteSpace=wrap;html=1;align=center;" vertex="1" parent="1">
          <mxGeometry x="544" y="430" width="120" height="60" as="geometry" />
        </mxCell>
        <mxCell id="KGPM8B4EujTWmbZvzeQu-15" value="" style="endArrow=none;html=1;rounded=0;entryX=0.5;entryY=0;entryDx=0;entryDy=0;" edge="1" parent="1" source="KGPM8B4EujTWmbZvzeQu-4" target="KGPM8B4EujTWmbZvzeQu-14">
          <mxGeometry relative="1" as="geometry">
            <mxPoint x="564" y="310" as="sourcePoint" />
            <mxPoint x="724" y="310" as="targetPoint" />
          </mxGeometry>
        </mxCell>
        <mxCell id="KGPM8B4EujTWmbZvzeQu-16" value="m" style="edgeLabel;html=1;align=center;verticalAlign=middle;resizable=0;points=[];" vertex="1" connectable="0" parent="KGPM8B4EujTWmbZvzeQu-15">
          <mxGeometry x="0.12" y="2" relative="1" as="geometry">
            <mxPoint as="offset" />
          </mxGeometry>
        </mxCell>
        <mxCell id="KGPM8B4EujTWmbZvzeQu-17" value="日志" style="rounded=1;arcSize=10;whiteSpace=wrap;html=1;align=center;" vertex="1" parent="1">
          <mxGeometry x="554" y="530" width="100" height="40" as="geometry" />
        </mxCell>
        <mxCell id="KGPM8B4EujTWmbZvzeQu-20" value="" style="endArrow=none;html=1;rounded=0;entryX=0.5;entryY=0;entryDx=0;entryDy=0;exitX=0.5;exitY=1;exitDx=0;exitDy=0;" edge="1" parent="1" source="KGPM8B4EujTWmbZvzeQu-14" target="KGPM8B4EujTWmbZvzeQu-17">
          <mxGeometry relative="1" as="geometry">
            <mxPoint x="594" y="490" as="sourcePoint" />
            <mxPoint x="754" y="490" as="targetPoint" />
          </mxGeometry>
        </mxCell>
        <mxCell id="KGPM8B4EujTWmbZvzeQu-21" value="n" style="edgeLabel;html=1;align=center;verticalAlign=middle;resizable=0;points=[];" vertex="1" connectable="0" parent="KGPM8B4EujTWmbZvzeQu-20">
          <mxGeometry x="-0.2" y="2" relative="1" as="geometry">
            <mxPoint as="offset" />
          </mxGeometry>
        </mxCell>
        <mxCell id="KGPM8B4EujTWmbZvzeQu-25" value="日志ID" style="ellipse;whiteSpace=wrap;html=1;align=center;fontStyle=4;" vertex="1" parent="1">
          <mxGeometry x="450" y="615" width="100" height="40" as="geometry" />
        </mxCell>
        <mxCell id="KGPM8B4EujTWmbZvzeQu-26" value="" style="endArrow=none;html=1;rounded=0;entryX=1;entryY=0.5;entryDx=0;entryDy=0;exitX=0.5;exitY=1;exitDx=0;exitDy=0;" edge="1" parent="1" target="KGPM8B4EujTWmbZvzeQu-25" source="KGPM8B4EujTWmbZvzeQu-17">
          <mxGeometry relative="1" as="geometry">
            <mxPoint x="614" y="590" as="sourcePoint" />
            <mxPoint x="684" y="540" as="targetPoint" />
          </mxGeometry>
        </mxCell>
        <mxCell id="KGPM8B4EujTWmbZvzeQu-27" value="" style="endArrow=none;html=1;rounded=0;exitX=0.5;exitY=1;exitDx=0;exitDy=0;entryX=0.5;entryY=0;entryDx=0;entryDy=0;" edge="1" parent="1" source="KGPM8B4EujTWmbZvzeQu-17" target="KGPM8B4EujTWmbZvzeQu-37">
          <mxGeometry relative="1" as="geometry">
            <mxPoint x="614" y="580" as="sourcePoint" />
            <mxPoint x="758" y="604" as="targetPoint" />
          </mxGeometry>
        </mxCell>
        <mxCell id="KGPM8B4EujTWmbZvzeQu-30" value="操作类型" style="ellipse;whiteSpace=wrap;html=1;align=center;" vertex="1" parent="1">
          <mxGeometry x="490" y="660" width="100" height="40" as="geometry" />
        </mxCell>
        <mxCell id="KGPM8B4EujTWmbZvzeQu-31" value="" style="endArrow=none;html=1;rounded=0;exitX=0.5;exitY=1;exitDx=0;exitDy=0;" edge="1" parent="1" source="KGPM8B4EujTWmbZvzeQu-17" target="KGPM8B4EujTWmbZvzeQu-30">
          <mxGeometry relative="1" as="geometry">
            <mxPoint x="610" y="539" as="sourcePoint" />
            <mxPoint x="524" y="620" as="targetPoint" />
          </mxGeometry>
        </mxCell>
        <mxCell id="KGPM8B4EujTWmbZvzeQu-32" value="操作接口" style="ellipse;whiteSpace=wrap;html=1;align=center;" vertex="1" parent="1">
          <mxGeometry x="554" y="700" width="100" height="40" as="geometry" />
        </mxCell>
        <mxCell id="KGPM8B4EujTWmbZvzeQu-33" value="" style="endArrow=none;html=1;rounded=0;entryX=0.5;entryY=0;entryDx=0;entryDy=0;exitX=0.5;exitY=1;exitDx=0;exitDy=0;" edge="1" parent="1" source="KGPM8B4EujTWmbZvzeQu-17" target="KGPM8B4EujTWmbZvzeQu-32">
          <mxGeometry relative="1" as="geometry">
            <mxPoint x="604" y="570" as="sourcePoint" />
            <mxPoint x="534" y="630" as="targetPoint" />
          </mxGeometry>
        </mxCell>
        <mxCell id="KGPM8B4EujTWmbZvzeQu-37" value="操作时间" style="ellipse;whiteSpace=wrap;html=1;align=center;" vertex="1" parent="1">
          <mxGeometry x="620" y="660" width="100" height="40" as="geometry" />
        </mxCell>
        <mxCell id="KGPM8B4EujTWmbZvzeQu-38" value="操作人ID" style="ellipse;whiteSpace=wrap;html=1;align=center;" vertex="1" parent="1">
          <mxGeometry x="680" y="610" width="100" height="40" as="geometry" />
        </mxCell>
        <mxCell id="KGPM8B4EujTWmbZvzeQu-39" value="" style="endArrow=none;html=1;rounded=0;entryX=0;entryY=0.5;entryDx=0;entryDy=0;exitX=0.5;exitY=1;exitDx=0;exitDy=0;" edge="1" parent="1" source="KGPM8B4EujTWmbZvzeQu-17" target="KGPM8B4EujTWmbZvzeQu-38">
          <mxGeometry relative="1" as="geometry">
            <mxPoint x="604" y="571" as="sourcePoint" />
            <mxPoint x="664" y="630" as="targetPoint" />
          </mxGeometry>
        </mxCell>
        <mxCell id="KGPM8B4EujTWmbZvzeQu-40" value="用户名" style="ellipse;whiteSpace=wrap;html=1;align=center;" vertex="1" parent="1">
          <mxGeometry x="350" y="400" width="100" height="40" as="geometry" />
        </mxCell>
        <mxCell id="KGPM8B4EujTWmbZvzeQu-41" value="" style="endArrow=none;html=1;rounded=0;exitX=0;exitY=0.5;exitDx=0;exitDy=0;" edge="1" parent="1" source="KGPM8B4EujTWmbZvzeQu-4" target="KGPM8B4EujTWmbZvzeQu-40">
          <mxGeometry relative="1" as="geometry">
            <mxPoint x="564" y="410" as="sourcePoint" />
            <mxPoint x="724" y="410" as="targetPoint" />
          </mxGeometry>
        </mxCell>
        <mxCell id="KGPM8B4EujTWmbZvzeQu-42" value="查看" style="shape=rhombus;perimeter=rhombusPerimeter;whiteSpace=wrap;html=1;align=center;" vertex="1" parent="1">
          <mxGeometry x="380" y="300" width="120" height="60" as="geometry" />
        </mxCell>
        <mxCell id="KGPM8B4EujTWmbZvzeQu-43" value="密码" style="ellipse;whiteSpace=wrap;html=1;align=center;" vertex="1" parent="1">
          <mxGeometry x="780" y="370" width="100" height="40" as="geometry" />
        </mxCell>
        <mxCell id="KGPM8B4EujTWmbZvzeQu-45" value="训练" style="shape=rhombus;perimeter=rhombusPerimeter;whiteSpace=wrap;html=1;align=center;" vertex="1" parent="1">
          <mxGeometry x="760" y="290" width="120" height="60" as="geometry" />
        </mxCell>
        <mxCell id="KGPM8B4EujTWmbZvzeQu-46" value="模型" style="rounded=1;arcSize=10;whiteSpace=wrap;html=1;align=center;" vertex="1" parent="1">
          <mxGeometry x="940" y="300" width="100" height="40" as="geometry" />
        </mxCell>
        <mxCell id="KGPM8B4EujTWmbZvzeQu-47" value="" style="endArrow=none;html=1;rounded=0;entryX=0;entryY=0.5;entryDx=0;entryDy=0;exitX=1;exitY=0.5;exitDx=0;exitDy=0;" edge="1" parent="1" source="KGPM8B4EujTWmbZvzeQu-45" target="KGPM8B4EujTWmbZvzeQu-46">
          <mxGeometry relative="1" as="geometry">
            <mxPoint x="940" y="360" as="sourcePoint" />
            <mxPoint x="1100" y="360" as="targetPoint" />
          </mxGeometry>
        </mxCell>
        <mxCell id="KGPM8B4EujTWmbZvzeQu-48" value="n" style="edgeLabel;html=1;align=center;verticalAlign=middle;resizable=0;points=[];" vertex="1" connectable="0" parent="KGPM8B4EujTWmbZvzeQu-47">
          <mxGeometry x="-0.2" y="2" relative="1" as="geometry">
            <mxPoint as="offset" />
          </mxGeometry>
        </mxCell>
        <mxCell id="KGPM8B4EujTWmbZvzeQu-49" value="模型ID" style="ellipse;whiteSpace=wrap;html=1;align=center;fontStyle=4;" vertex="1" parent="1">
          <mxGeometry x="880" y="210" width="100" height="40" as="geometry" />
        </mxCell>
        <mxCell id="KGPM8B4EujTWmbZvzeQu-50" value="" style="endArrow=none;html=1;rounded=0;entryX=0.5;entryY=1;entryDx=0;entryDy=0;exitX=0.5;exitY=0;exitDx=0;exitDy=0;" edge="1" parent="1" source="KGPM8B4EujTWmbZvzeQu-46" target="KGPM8B4EujTWmbZvzeQu-49">
          <mxGeometry relative="1" as="geometry">
            <mxPoint x="981" y="297" as="sourcePoint" />
            <mxPoint x="1030" y="410" as="targetPoint" />
          </mxGeometry>
        </mxCell>
        <mxCell id="KGPM8B4EujTWmbZvzeQu-52" value="操作类型" style="ellipse;whiteSpace=wrap;html=1;align=center;" vertex="1" parent="1">
          <mxGeometry x="1000" y="210" width="100" height="40" as="geometry" />
        </mxCell>
        <mxCell id="KGPM8B4EujTWmbZvzeQu-53" value="" style="endArrow=none;html=1;rounded=0;exitX=0.5;exitY=0;exitDx=0;exitDy=0;entryX=0.5;entryY=1;entryDx=0;entryDy=0;" edge="1" parent="1" target="KGPM8B4EujTWmbZvzeQu-52" source="KGPM8B4EujTWmbZvzeQu-46">
          <mxGeometry relative="1" as="geometry">
            <mxPoint x="950" y="440" as="sourcePoint" />
            <mxPoint x="1040" y="240" as="targetPoint" />
          </mxGeometry>
        </mxCell>
        <mxCell id="KGPM8B4EujTWmbZvzeQu-57" value="权重" style="ellipse;whiteSpace=wrap;html=1;align=center;" vertex="1" parent="1">
          <mxGeometry x="940" y="370" width="100" height="40" as="geometry" />
        </mxCell>
        <mxCell id="KGPM8B4EujTWmbZvzeQu-58" value="" style="endArrow=none;html=1;rounded=0;exitX=0.5;exitY=1;exitDx=0;exitDy=0;" edge="1" parent="1" target="KGPM8B4EujTWmbZvzeQu-57" source="KGPM8B4EujTWmbZvzeQu-46">
          <mxGeometry relative="1" as="geometry">
            <mxPoint x="990" y="350" as="sourcePoint" />
            <mxPoint x="1010" y="500" as="targetPoint" />
          </mxGeometry>
        </mxCell>
        <mxCell id="KGPM8B4EujTWmbZvzeQu-59" value="" style="endArrow=none;html=1;rounded=0;entryX=0;entryY=0.5;entryDx=0;entryDy=0;" edge="1" parent="1" target="KGPM8B4EujTWmbZvzeQu-45">
          <mxGeometry relative="1" as="geometry">
            <mxPoint x="650" y="340" as="sourcePoint" />
            <mxPoint x="810" y="340" as="targetPoint" />
          </mxGeometry>
        </mxCell>
        <mxCell id="KGPM8B4EujTWmbZvzeQu-60" value="m" style="edgeLabel;html=1;align=center;verticalAlign=middle;resizable=0;points=[];" vertex="1" connectable="0" parent="KGPM8B4EujTWmbZvzeQu-59">
          <mxGeometry x="0.0886" relative="1" as="geometry">
            <mxPoint as="offset" />
          </mxGeometry>
        </mxCell>
        <mxCell id="KGPM8B4EujTWmbZvzeQu-72" value="日志" style="rounded=1;arcSize=10;whiteSpace=wrap;html=1;align=center;" vertex="1" parent="1">
          <mxGeometry x="204" y="310" width="100" height="40" as="geometry" />
        </mxCell>
        <mxCell id="KGPM8B4EujTWmbZvzeQu-73" value="日志ID" style="ellipse;whiteSpace=wrap;html=1;align=center;fontStyle=4;" vertex="1" parent="1">
          <mxGeometry x="74" y="350" width="100" height="40" as="geometry" />
        </mxCell>
        <mxCell id="KGPM8B4EujTWmbZvzeQu-74" value="" style="endArrow=none;html=1;rounded=0;entryX=1;entryY=0.5;entryDx=0;entryDy=0;exitX=0.5;exitY=1;exitDx=0;exitDy=0;" edge="1" parent="1" source="KGPM8B4EujTWmbZvzeQu-72" target="KGPM8B4EujTWmbZvzeQu-73">
          <mxGeometry relative="1" as="geometry">
            <mxPoint x="264" y="370" as="sourcePoint" />
            <mxPoint x="334" y="320" as="targetPoint" />
          </mxGeometry>
        </mxCell>
        <mxCell id="KGPM8B4EujTWmbZvzeQu-75" value="" style="endArrow=none;html=1;rounded=0;exitX=0.5;exitY=1;exitDx=0;exitDy=0;entryX=0.5;entryY=0;entryDx=0;entryDy=0;" edge="1" parent="1" source="KGPM8B4EujTWmbZvzeQu-72" target="KGPM8B4EujTWmbZvzeQu-80">
          <mxGeometry relative="1" as="geometry">
            <mxPoint x="264" y="360" as="sourcePoint" />
            <mxPoint x="408" y="384" as="targetPoint" />
          </mxGeometry>
        </mxCell>
        <mxCell id="KGPM8B4EujTWmbZvzeQu-76" value="操作类型" style="ellipse;whiteSpace=wrap;html=1;align=center;" vertex="1" parent="1">
          <mxGeometry x="64" y="410" width="100" height="40" as="geometry" />
        </mxCell>
        <mxCell id="KGPM8B4EujTWmbZvzeQu-77" value="" style="endArrow=none;html=1;rounded=0;entryX=0.836;entryY=-0.01;entryDx=0;entryDy=0;entryPerimeter=0;exitX=0.5;exitY=1;exitDx=0;exitDy=0;" edge="1" parent="1" source="KGPM8B4EujTWmbZvzeQu-72" target="KGPM8B4EujTWmbZvzeQu-76">
          <mxGeometry relative="1" as="geometry">
            <mxPoint x="260" y="319" as="sourcePoint" />
            <mxPoint x="174" y="400" as="targetPoint" />
          </mxGeometry>
        </mxCell>
        <mxCell id="KGPM8B4EujTWmbZvzeQu-78" value="操作人" style="ellipse;whiteSpace=wrap;html=1;align=center;" vertex="1" parent="1">
          <mxGeometry x="240" y="410" width="100" height="40" as="geometry" />
        </mxCell>
        <mxCell id="KGPM8B4EujTWmbZvzeQu-79" value="" style="endArrow=none;html=1;rounded=0;entryX=0.5;entryY=0;entryDx=0;entryDy=0;exitX=0.5;exitY=1;exitDx=0;exitDy=0;" edge="1" parent="1" source="KGPM8B4EujTWmbZvzeQu-72" target="KGPM8B4EujTWmbZvzeQu-78">
          <mxGeometry relative="1" as="geometry">
            <mxPoint x="254" y="350" as="sourcePoint" />
            <mxPoint x="184" y="410" as="targetPoint" />
          </mxGeometry>
        </mxCell>
        <mxCell id="KGPM8B4EujTWmbZvzeQu-80" value="操作时间" style="ellipse;whiteSpace=wrap;html=1;align=center;" vertex="1" parent="1">
          <mxGeometry x="150" y="450" width="100" height="40" as="geometry" />
        </mxCell>
        <mxCell id="KGPM8B4EujTWmbZvzeQu-81" value="备注" style="ellipse;whiteSpace=wrap;html=1;align=center;" vertex="1" parent="1">
          <mxGeometry x="314" y="355" width="100" height="40" as="geometry" />
        </mxCell>
        <mxCell id="KGPM8B4EujTWmbZvzeQu-82" value="" style="endArrow=none;html=1;rounded=0;entryX=0;entryY=0.5;entryDx=0;entryDy=0;exitX=0.5;exitY=1;exitDx=0;exitDy=0;" edge="1" parent="1" source="KGPM8B4EujTWmbZvzeQu-72" target="KGPM8B4EujTWmbZvzeQu-81">
          <mxGeometry relative="1" as="geometry">
            <mxPoint x="254" y="351" as="sourcePoint" />
            <mxPoint x="314" y="410" as="targetPoint" />
          </mxGeometry>
        </mxCell>
        <mxCell id="KGPM8B4EujTWmbZvzeQu-83" value="" style="endArrow=none;html=1;rounded=0;entryX=1;entryY=0.5;entryDx=0;entryDy=0;exitX=0;exitY=0.5;exitDx=0;exitDy=0;" edge="1" parent="1" source="KGPM8B4EujTWmbZvzeQu-42" target="KGPM8B4EujTWmbZvzeQu-72">
          <mxGeometry relative="1" as="geometry">
            <mxPoint x="614" y="500" as="sourcePoint" />
            <mxPoint x="614" y="540" as="targetPoint" />
          </mxGeometry>
        </mxCell>
        <mxCell id="KGPM8B4EujTWmbZvzeQu-84" value="n" style="edgeLabel;html=1;align=center;verticalAlign=middle;resizable=0;points=[];" vertex="1" connectable="0" parent="KGPM8B4EujTWmbZvzeQu-83">
          <mxGeometry x="-0.2" y="2" relative="1" as="geometry">
            <mxPoint as="offset" />
          </mxGeometry>
        </mxCell>
        <mxCell id="KGPM8B4EujTWmbZvzeQu-85" value="" style="endArrow=none;html=1;rounded=0;entryX=0.5;entryY=0;entryDx=0;entryDy=0;exitX=1;exitY=0.5;exitDx=0;exitDy=0;" edge="1" parent="1" source="KGPM8B4EujTWmbZvzeQu-42">
          <mxGeometry relative="1" as="geometry">
            <mxPoint x="514" y="260" as="sourcePoint" />
            <mxPoint x="574" y="340" as="targetPoint" />
          </mxGeometry>
        </mxCell>
        <mxCell id="KGPM8B4EujTWmbZvzeQu-86" value="m" style="edgeLabel;html=1;align=center;verticalAlign=middle;resizable=0;points=[];" vertex="1" connectable="0" parent="KGPM8B4EujTWmbZvzeQu-85">
          <mxGeometry x="0.12" y="2" relative="1" as="geometry">
            <mxPoint as="offset" />
          </mxGeometry>
        </mxCell>
        <mxCell id="KGPM8B4EujTWmbZvzeQu-87" value="拥有" style="shape=rhombus;perimeter=rhombusPerimeter;whiteSpace=wrap;html=1;align=center;rotation=34;" vertex="1" parent="1">
          <mxGeometry x="414" y="220" width="120" height="60" as="geometry" />
        </mxCell>
        <mxCell id="KGPM8B4EujTWmbZvzeQu-88" value="权限" style="rounded=1;arcSize=10;whiteSpace=wrap;html=1;align=center;" vertex="1" parent="1">
          <mxGeometry x="290" y="190" width="100" height="40" as="geometry" />
        </mxCell>
        <mxCell id="KGPM8B4EujTWmbZvzeQu-89" value="权限ID" style="ellipse;whiteSpace=wrap;html=1;align=center;fontStyle=4;" vertex="1" parent="1">
          <mxGeometry x="164" y="240" width="100" height="40" as="geometry" />
        </mxCell>
        <mxCell id="KGPM8B4EujTWmbZvzeQu-90" value="" style="endArrow=none;html=1;rounded=0;entryX=1;entryY=0.5;entryDx=0;entryDy=0;exitX=0.5;exitY=1;exitDx=0;exitDy=0;" edge="1" parent="1" source="KGPM8B4EujTWmbZvzeQu-88" target="KGPM8B4EujTWmbZvzeQu-89">
          <mxGeometry relative="1" as="geometry">
            <mxPoint x="274" y="150" as="sourcePoint" />
            <mxPoint x="344" y="100" as="targetPoint" />
          </mxGeometry>
        </mxCell>
        <mxCell id="KGPM8B4EujTWmbZvzeQu-94" value="权限名" style="ellipse;whiteSpace=wrap;html=1;align=center;" vertex="1" parent="1">
          <mxGeometry x="290" y="250" width="100" height="40" as="geometry" />
        </mxCell>
        <mxCell id="KGPM8B4EujTWmbZvzeQu-95" value="" style="endArrow=none;html=1;rounded=0;entryX=0.5;entryY=0;entryDx=0;entryDy=0;exitX=0.5;exitY=1;exitDx=0;exitDy=0;" edge="1" parent="1" source="KGPM8B4EujTWmbZvzeQu-88" target="KGPM8B4EujTWmbZvzeQu-94">
          <mxGeometry relative="1" as="geometry">
            <mxPoint x="264" y="130" as="sourcePoint" />
            <mxPoint x="194" y="190" as="targetPoint" />
          </mxGeometry>
        </mxCell>
        <mxCell id="KGPM8B4EujTWmbZvzeQu-99" value="" style="endArrow=none;html=1;rounded=0;entryX=1;entryY=0.5;entryDx=0;entryDy=0;exitX=0;exitY=0.5;exitDx=0;exitDy=0;" edge="1" parent="1" source="KGPM8B4EujTWmbZvzeQu-87" target="KGPM8B4EujTWmbZvzeQu-88">
          <mxGeometry relative="1" as="geometry">
            <mxPoint x="624" y="280" as="sourcePoint" />
            <mxPoint x="624" y="320" as="targetPoint" />
          </mxGeometry>
        </mxCell>
        <mxCell id="KGPM8B4EujTWmbZvzeQu-100" value="n" style="edgeLabel;html=1;align=center;verticalAlign=middle;resizable=0;points=[];" vertex="1" connectable="0" parent="KGPM8B4EujTWmbZvzeQu-99">
          <mxGeometry x="-0.2" y="2" relative="1" as="geometry">
            <mxPoint as="offset" />
          </mxGeometry>
        </mxCell>
        <mxCell id="KGPM8B4EujTWmbZvzeQu-101" value="" style="endArrow=none;html=1;rounded=0;exitX=1;exitY=0.5;exitDx=0;exitDy=0;" edge="1" parent="1" source="KGPM8B4EujTWmbZvzeQu-87">
          <mxGeometry relative="1" as="geometry">
            <mxPoint x="510" y="340" as="sourcePoint" />
            <mxPoint x="570" y="340" as="targetPoint" />
          </mxGeometry>
        </mxCell>
        <mxCell id="KGPM8B4EujTWmbZvzeQu-102" value="m" style="edgeLabel;html=1;align=center;verticalAlign=middle;resizable=0;points=[];" vertex="1" connectable="0" parent="KGPM8B4EujTWmbZvzeQu-101">
          <mxGeometry x="0.12" y="2" relative="1" as="geometry">
            <mxPoint as="offset" />
          </mxGeometry>
        </mxCell>
        <mxCell id="KGPM8B4EujTWmbZvzeQu-103" value="查看" style="shape=rhombus;perimeter=rhombusPerimeter;whiteSpace=wrap;html=1;align=center;rotation=-45;" vertex="1" parent="1">
          <mxGeometry x="434" y="430" width="120" height="60" as="geometry" />
        </mxCell>
        <mxCell id="KGPM8B4EujTWmbZvzeQu-104" value="" style="endArrow=none;html=1;rounded=0;entryX=1;entryY=0.5;entryDx=0;entryDy=0;exitX=0.176;exitY=1.01;exitDx=0;exitDy=0;exitPerimeter=0;" edge="1" parent="1" source="KGPM8B4EujTWmbZvzeQu-4" target="KGPM8B4EujTWmbZvzeQu-103">
          <mxGeometry relative="1" as="geometry">
            <mxPoint x="614" y="390" as="sourcePoint" />
            <mxPoint x="614" y="440" as="targetPoint" />
          </mxGeometry>
        </mxCell>
        <mxCell id="KGPM8B4EujTWmbZvzeQu-105" value="m" style="edgeLabel;html=1;align=center;verticalAlign=middle;resizable=0;points=[];" vertex="1" connectable="0" parent="KGPM8B4EujTWmbZvzeQu-104">
          <mxGeometry x="0.12" y="2" relative="1" as="geometry">
            <mxPoint as="offset" />
          </mxGeometry>
        </mxCell>
        <mxCell id="KGPM8B4EujTWmbZvzeQu-108" value="权限" style="rounded=1;arcSize=10;whiteSpace=wrap;html=1;align=center;" vertex="1" parent="1">
          <mxGeometry x="306" y="520" width="100" height="40" as="geometry" />
        </mxCell>
        <mxCell id="KGPM8B4EujTWmbZvzeQu-109" value="权限ID" style="ellipse;whiteSpace=wrap;html=1;align=center;fontStyle=4;" vertex="1" parent="1">
          <mxGeometry x="180" y="570" width="100" height="40" as="geometry" />
        </mxCell>
        <mxCell id="KGPM8B4EujTWmbZvzeQu-110" value="" style="endArrow=none;html=1;rounded=0;entryX=1;entryY=0.5;entryDx=0;entryDy=0;exitX=0.5;exitY=1;exitDx=0;exitDy=0;" edge="1" parent="1" source="KGPM8B4EujTWmbZvzeQu-108" target="KGPM8B4EujTWmbZvzeQu-109">
          <mxGeometry relative="1" as="geometry">
            <mxPoint x="290" y="480" as="sourcePoint" />
            <mxPoint x="360" y="430" as="targetPoint" />
          </mxGeometry>
        </mxCell>
        <mxCell id="KGPM8B4EujTWmbZvzeQu-111" value="权限名" style="ellipse;whiteSpace=wrap;html=1;align=center;" vertex="1" parent="1">
          <mxGeometry x="306" y="580" width="100" height="40" as="geometry" />
        </mxCell>
        <mxCell id="KGPM8B4EujTWmbZvzeQu-112" value="" style="endArrow=none;html=1;rounded=0;entryX=0.5;entryY=0;entryDx=0;entryDy=0;exitX=0.5;exitY=1;exitDx=0;exitDy=0;" edge="1" parent="1" source="KGPM8B4EujTWmbZvzeQu-108" target="KGPM8B4EujTWmbZvzeQu-111">
          <mxGeometry relative="1" as="geometry">
            <mxPoint x="280" y="460" as="sourcePoint" />
            <mxPoint x="210" y="520" as="targetPoint" />
          </mxGeometry>
        </mxCell>
        <mxCell id="KGPM8B4EujTWmbZvzeQu-113" value="" style="endArrow=none;html=1;rounded=0;entryX=1;entryY=0.5;entryDx=0;entryDy=0;exitX=0;exitY=0.5;exitDx=0;exitDy=0;" edge="1" parent="1" target="KGPM8B4EujTWmbZvzeQu-108" source="KGPM8B4EujTWmbZvzeQu-103">
          <mxGeometry relative="1" as="geometry">
            <mxPoint x="440" y="546" as="sourcePoint" />
            <mxPoint x="640" y="650" as="targetPoint" />
          </mxGeometry>
        </mxCell>
        <mxCell id="KGPM8B4EujTWmbZvzeQu-114" value="n" style="edgeLabel;html=1;align=center;verticalAlign=middle;resizable=0;points=[];" vertex="1" connectable="0" parent="KGPM8B4EujTWmbZvzeQu-113">
          <mxGeometry x="-0.2" y="2" relative="1" as="geometry">
            <mxPoint as="offset" />
          </mxGeometry>
        </mxCell>
      </root>
    </mxGraphModel>
  </diagram>
</mxfile>
